<svg xmlns="http://www.w3.org/2000/svg" xmlns:xlink="http://www.w3.org/1999/xlink" width="500" zoomAndPan="magnify" viewBox="0 0 375 374.999991" height="500" preserveAspectRatio="xMidYMid meet" version="1.0"><defs><g/></defs><g fill="#000000" fill-opacity="1"><g transform="translate(12.638503, 261.04106)"><g><path d="M 175.210938 -249.40625 L 98.332031 -249.40625 C 83.730469 -249.109375 75.386719 -237.488281 75.386719 -226.460938 C 75.386719 -216.628906 81.945312 -207.390625 97.140625 -207.390625 L 128.429688 -207.390625 L 81.347656 -69.128906 C 73.300781 -45.886719 61.382812 -38.4375 47.378906 -38.4375 C 41.714844 -38.4375 37.546875 -44.695312 37.546875 -47.378906 C 37.84375 -48.570312 37.84375 -50.058594 37.84375 -51.253906 C 37.84375 -62.875 26.816406 -70.023438 15.792969 -70.023438 C 4.769531 -70.023438 -6.554688 -62.875 -6.554688 -45.589844 C -6.554688 -18.175781 19.070312 3.574219 51.847656 3.574219 C 76.878906 3.574219 110.25 -10.429688 126.042969 -56.019531 L 189.511719 -240.765625 C 191.003906 -244.9375 188.320312 -249.40625 183.554688 -249.40625 Z M 175.210938 -249.40625 "/></g></g></g><g fill="#000000" fill-opacity="1"><g transform="translate(120.772768, 354.021595)"><g><path d="M 209.476562 -85.519531 C 195.769531 -47.972656 179.679688 -37.84375 167.464844 -37.84375 C 162.097656 -37.84375 158.820312 -40.523438 158.820312 -44.398438 C 158.820312 -46.484375 159.417969 -48.570312 160.3125 -51.253906 L 174.914062 -88.203125 C 178.191406 -96.246094 179.679688 -103.695312 179.679688 -110.550781 C 179.679688 -123.066406 175.210938 -132.601562 168.058594 -140.050781 C 186.535156 -152.863281 198.75 -182.957031 198.75 -204.113281 C 198.75 -235.402344 171.636719 -252.984375 143.625 -254.472656 C 142.136719 -254.472656 140.050781 -254.769531 137.367188 -254.769531 C 129.917969 -254.769531 118.59375 -253.578125 108.164062 -246.128906 C 106.675781 -252.984375 98.035156 -258.644531 88.5 -258.644531 C 79.261719 -258.644531 68.832031 -253.875 64.066406 -240.46875 L -11.023438 -27.414062 C -11.917969 -24.433594 -12.515625 -21.753906 -12.515625 -19.367188 C -12.515625 -7.152344 -1.488281 0 10.429688 0 C 20.558594 0 30.988281 -5.363281 35.160156 -16.984375 L 75.089844 -129.621094 C 75.6875 -122.765625 79.558594 -110.25 97.140625 -110.25 C 101.90625 -110.25 107.867188 -111.445312 115.316406 -113.828125 C 122.765625 -113.527344 127.234375 -108.761719 127.234375 -101.90625 C 127.234375 -98.332031 126.640625 -94.757812 125.148438 -90.882812 L 114.125 -62.875 C 111.445312 -55.722656 109.953125 -48.570312 109.953125 -42.3125 C 109.953125 -16.390625 130.8125 0 160.3125 0 C 192.792969 0 227.058594 -19.964844 246.128906 -78.964844 C 246.726562 -81.347656 247.320312 -83.730469 247.320312 -85.816406 C 247.320312 -96.246094 238.679688 -103.101562 229.742188 -103.101562 C 221.695312 -103.101562 213.351562 -98.035156 209.476562 -85.519531 Z M 82.242188 -150.179688 L 96.542969 -191.003906 C 103.695312 -204.414062 117.105469 -213.949219 130.214844 -213.949219 C 141.539062 -213.949219 149.285156 -206.796875 149.285156 -196.070312 C 149.285156 -184.148438 142.433594 -166.570312 131.707031 -160.609375 C 125.449219 -162.992188 119.191406 -164.183594 112.933594 -164.183594 C 100.714844 -164.183594 89.394531 -159.714844 82.242188 -150.179688 Z M 82.242188 -150.179688 "/></g></g></g></svg>